<?xml version="1.0" encoding="utf-8"?>
<!-- Generator: Adobe Illustrator 27.5.0, SVG Export Plug-In . SVG Version: 6.00 Build 0)  -->
<svg version="1.1" xmlns="http://www.w3.org/2000/svg" xmlns:xlink="http://www.w3.org/1999/xlink" x="0px" y="0px"
	 viewBox="0 0 500 500" style="enable-background:new 0 0 500 500;" xml:space="preserve">
<g id="Floor">
	<ellipse id="Floor_10_" style="fill:#F5F5F5;" cx="249.86" cy="362.676" rx="214.607" ry="118.824"/>
</g>
<g id="Shadows">
	<path id="Shadow_5_" style="fill:#E0E0E0;" d="M108.698,349.214c-32.035,18.495-32.035,48.483,0.001,66.98
		c32.036,18.495,83.978,18.495,116.012,0c32.036-18.496,32.036-48.484-0.001-66.98C192.675,330.717,140.734,330.717,108.698,349.214
		z"/>
</g>
<g id="Plants">
	<g id="Plants_14_">
		<g id="XMLID_574_">
			<g id="XMLID_579_">
				<path id="XMLID_580_" style="fill:#27DEBF;" d="M420.034,327.674l-8.824-5.099c0,0-5.252-21.822-3.159-41.458
					c2.943-27.607,21.115-37.995,28.025-35.614s8.911,10.414-2.522,26.856C426.808,282.061,418.521,302.267,420.034,327.674z"/>
			</g>
			<g id="XMLID_577_" style="opacity:0.15;">
				<path id="XMLID_578_" d="M420.034,327.674l-8.824-5.099c0,0-5.252-21.822-3.159-41.458
					c2.943-27.607,21.115-37.995,28.025-35.614s8.911,10.414-2.522,26.856C426.808,282.061,418.521,302.267,420.034,327.674z"/>
			</g>
			<g id="XMLID_575_">
				<path id="XMLID_576_" style="fill:#FFFFFF;" d="M416.378,316.953c0.029-0.001,0.056-0.005,0.085-0.01
					c0.332-0.063,0.55-0.383,0.487-0.715c-4.837-25.463,4.058-54.076,15.073-65.983c0.229-0.247,0.215-0.636-0.034-0.865
					c-0.248-0.227-0.636-0.214-0.865,0.034c-11.216,12.124-20.285,41.204-15.376,67.042
					C415.804,316.759,416.078,316.968,416.378,316.953z"/>
			</g>
		</g>
		<g id="XMLID_567_">
			<g id="XMLID_572_">
				<path id="XMLID_573_" style="fill:#27DEBF;" d="M443.15,341.023c1.394,0.71,5.101-2.464,6.134-3.235
					c1.769-1.321,3.165-3.135,4.051-5.153c1.031-2.348,1.196-4.816,0.71-7.331c-0.253-1.304-0.685-2.566-1.116-3.823
					c-0.423-1.234-0.846-2.468-1.269-3.702c-0.418-1.217-0.841-2.477-0.742-3.76c0.199-2.585,2.388-4.5,4.383-6.156
					c2.206-1.832,4.478-4.218,4.309-7.31c-0.13-2.386-1.478-4.539-3.051-6.337c-1.573-1.798-3.411-3.364-4.847-5.273
					c-1.034-1.375-1.869-3.008-1.799-4.727c0.043-1.068,0.434-2.091,0.895-3.055c0.991-2.069,2.338-3.986,2.982-6.187
					s0.401-4.886-1.365-6.349c-1.45-1.201-3.518-1.274-5.388-1.056c-1.73,0.202-3.385,1.071-4.861,1.992
					c-4.772,2.977-7.28,8.933-12.384,11.297c-1.968,0.912-4.161,1.2-6.228,1.859c-2.067,0.659-4.148,1.837-5.021,3.823
					c-1.72,3.916,2.067,8.445,0.927,12.567c-1.008,3.648-4.426,5.197-6.221,8.53c-0.785,1.458-0.9,3.103-0.679,4.743
					c0.375,2.777,0.886,4.803,2.381,7.838c1.235,2.507,4.714,7.247,4.714,7.247S442.936,340.914,443.15,341.023z"/>
			</g>
			<g id="XMLID_570_">
				<path id="XMLID_571_" style="fill:#FFFFFF;" d="M429.643,333.983c0.008,0,0.017-0.001,0.017-0.001
					c0.346-0.032,0.593-0.33,0.563-0.666c-2.234-24.219,7.85-51.59,15.773-59.794c0.234-0.243,0.228-0.63-0.015-0.866
					c-0.244-0.234-0.63-0.227-0.866,0.015c-8.082,8.369-18.377,36.197-16.112,60.757C429.033,333.757,429.317,334,429.643,333.983z"
					/>
			</g>
			<g id="XMLID_568_">
				<path id="XMLID_569_" style="fill:#FFFFFF;" d="M432.049,304.121c0.06-0.003,0.12-0.014,0.179-0.037
					c7.676-2.804,17.373-3.719,17.469-3.727c0.337-0.031,0.584-0.33,0.554-0.666c-0.031-0.336-0.3-0.589-0.666-0.554
					c-0.099,0.01-9.95,0.939-17.777,3.798c-0.317,0.115-0.482,0.467-0.365,0.784C431.538,303.978,431.787,304.134,432.049,304.121z"
					/>
			</g>
		</g>
	</g>
	<g id="Plants_8_">
		<g id="XMLID_560_">
			<g id="XMLID_565_">
				<path id="XMLID_566_" style="fill:#27DEBF;" d="M80.666,327.674l8.824-5.099c0,0,5.252-21.822,3.159-41.458
					c-2.943-27.607-21.115-37.995-28.025-35.614s-8.911,10.414,2.522,26.856C73.892,282.061,82.179,302.267,80.666,327.674z"/>
			</g>
			<g id="XMLID_563_" style="opacity:0.15;">
				<path id="XMLID_564_" d="M80.666,327.674l8.824-5.099c0,0,5.252-21.822,3.159-41.458c-2.943-27.607-21.115-37.995-28.025-35.614
					s-8.911,10.414,2.522,26.856C73.892,282.061,82.179,302.267,80.666,327.674z"/>
			</g>
			<g id="XMLID_561_">
				<path id="XMLID_562_" style="fill:#FFFFFF;" d="M84.322,316.953c-0.029-0.001-0.056-0.005-0.084-0.01
					c-0.332-0.063-0.55-0.383-0.487-0.715c4.837-25.463-4.058-54.076-15.073-65.983c-0.229-0.247-0.215-0.636,0.034-0.865
					c0.248-0.227,0.636-0.214,0.865,0.034c11.216,12.124,20.285,41.204,15.376,67.042C84.896,316.759,84.622,316.968,84.322,316.953
					z"/>
			</g>
		</g>
		<g id="XMLID_549_">
			<g id="XMLID_558_">
				<path id="XMLID_559_" style="fill:#27DEBF;" d="M57.55,341.023c-1.394,0.71-5.101-2.464-6.134-3.235
					c-1.769-1.321-3.165-3.135-4.051-5.153c-1.031-2.348-1.196-4.816-0.71-7.331c0.253-1.304,0.685-2.566,1.115-3.823
					c0.423-1.234,0.846-2.468,1.269-3.702c0.417-1.217,0.84-2.477,0.742-3.76c-0.199-2.585-2.388-4.5-4.383-6.156
					c-2.206-1.832-4.478-4.218-4.309-7.31c0.13-2.386,1.478-4.539,3.051-6.337c1.573-1.798,3.411-3.364,4.847-5.273
					c1.034-1.375,1.869-3.008,1.799-4.727c-0.043-1.068-0.434-2.091-0.895-3.055c-0.991-2.069-2.338-3.986-2.982-6.187
					c-0.644-2.201-0.401-4.886,1.365-6.349c1.45-1.201,3.518-1.274,5.388-1.056c1.73,0.202,3.385,1.071,4.861,1.992
					c4.772,2.977,7.28,8.933,12.384,11.297c1.968,0.912,4.161,1.2,6.228,1.859c2.067,0.659,4.148,1.837,5.021,3.823
					c1.72,3.916-2.066,8.445-0.927,12.567c1.008,3.648,4.426,5.197,6.221,8.53c0.785,1.458,0.9,3.103,0.679,4.743
					c-0.375,2.777-0.886,4.803-2.381,7.838c-1.235,2.507-4.714,7.247-4.714,7.247S57.764,340.914,57.55,341.023z"/>
			</g>
			<g id="XMLID_556_">
				<path id="XMLID_557_" style="fill:#FFFFFF;" d="M71.057,333.983c-0.008,0-0.017-0.001-0.017-0.001
					c-0.346-0.032-0.593-0.33-0.563-0.666c2.234-24.219-7.85-51.59-15.773-59.794c-0.234-0.243-0.228-0.63,0.015-0.866
					c0.244-0.234,0.63-0.227,0.866,0.015c8.082,8.369,18.377,36.197,16.112,60.757C71.667,333.757,71.383,334,71.057,333.983z"/>
			</g>
			<g id="XMLID_551_">
				<path id="XMLID_555_" style="fill:#FFFFFF;" d="M68.651,304.121c-0.06-0.003-0.12-0.014-0.179-0.037
					c-7.676-2.804-17.373-3.719-17.47-3.727c-0.337-0.031-0.584-0.33-0.554-0.666c0.031-0.336,0.3-0.589,0.666-0.554
					c0.099,0.01,9.95,0.939,17.777,3.798c0.317,0.115,0.481,0.467,0.365,0.784C69.162,303.978,68.913,304.134,68.651,304.121z"/>
			</g>
		</g>
	</g>
</g>
<g id="Character">
	<g id="Character_1_">
		<g>
			<path style="fill:#FFA8A7;" d="M185.093,102.85c11.149-0.433,15.532,0.259,19.521,5.105c4.337,5.268,19.214,53.582,19.214,53.582
				l39.69,13.75l-14.762,9.381c0,0-24.277-4.997-31.445-6.382c-5.639-1.089-7.49-1.144-10.326-8.354
				c-3.935-10.004-20.713-51.1-20.713-51.1L185.093,102.85z"/>
			<path style="fill:#455A64;" d="M186.433,102.585c6.32-0.549,11.203-0.302,14.786,1.648c3.583,1.951,5.09,4.333,7.518,10.425
				c2.428,6.092,15.648,45.936,15.648,45.936l19.372,6.896l-3.96,15.339c0,0-21.066-3.665-25.413-4.653
				c-4.348-0.988-5.533-1.927-8.001-7.58c-2.469-5.653-16.873-41.6-16.873-41.6L186.433,102.585z"/>
		</g>
		<g id="XMLID_330_">
			<path style="fill:#263238;" d="M143.874,407.82c-0.417,1.653-1.295,6.336-10.002,6.336c-8.706,0-13.702-3.568-15.415-7.993
				c-1.713-4.425-0.73-7.704-0.571-11.561c0.159-3.857-2.709-6.317-3.343-8.402c-0.934-3.071,1.631-7.299,1.631-7.299
				L143.874,407.82z"/>
			<path style="fill:#263238;" d="M225.502,383.795c0.321,0.236,0.512,2.949-0.406,4.191c-0.632,0.855-6.471,5.093-13.675,4.211
				c-7.204-0.882-10.721-2.756-14.837-5.183c-4.212-2.484-7.12-2.843-11.406-2.829c-4.15,0.013-7.219-0.795-7.574-1.873
				c-0.623-1.89-0.668-3.101,0.242-3.074L225.502,383.795z"/>
			<path id="XMLID_341_" style="fill:#FFA8A7;" d="M119.072,372.563c0,7.936,15.195,9.386,14.82,2.995l5.296-18.547l-17.175-1.822
				L119.072,372.563z"/>
			<path style="fill:#263238;" d="M143.789,403.849c-0.563-1.508-2.489-3.832-3.285-5.231c-4.159-7.308-6.293-15.439-5.769-23.889
				c0.029-0.463,0.093-1.361-0.325-1.698c-0.443-0.356-0.938-0.017-1.456,0.129c-0.008-0.009-0.014-0.017-0.023-0.026
				c0,0-0.007,0.024-0.011,0.036c-0.648,0.18-1.534,0.359-2.741,0.329c-3.074-0.078-6.323-1.264-7.093-1.264
				c-0.598,0-1.03,1.795-1.253,3.771c-0.983-0.829-1.149-2.227-2.009-3.148c-0.464-0.497-0.692-0.542-0.585-1.241
				c0.07-0.455,0.156-0.861,0.223-1.317c-0.745-0.335-1.807,2.555-2.758,4.741c-1.101,2.53-2.432,5.375-1.762,8.191
				c0.373,1.568,1.149,3.004,1.842,4.459c1.194,2.508,2.176,5.211,2.063,7.987c-0.049,1.216-0.309,2.42-0.302,3.637
				c0.024,4.24,2.426,7.902,6.263,9.705c4.987,2.344,12.846,3.166,17.939,0.153C144.531,408.116,144.353,405.357,143.789,403.849z"
				/>
			<path id="XMLID_340_" style="fill:#FFA8A7;" d="M180.88,366.096c4.296,3.087,8.265,3.468,13.315,0.933l2.543-27.061h-18.586
				L180.88,366.096z"/>
			<path id="XMLID_339_" style="fill:#263238;" d="M140.185,192.62c-3.432,31.491-7.988,94.026-7.988,94.026
				s-5.157,9.473-7.17,24.665c-2.485,18.758-5.404,54.443-5.404,54.443s8.776,5.702,17.308,2.946c0,0,19.523-56.334,23.418-74.801
				c3.398-16.117,9.417-49.219,9.417-49.219l7.526,45.047c0,0-2.956,9.351-2.43,21.954c0.362,8.676,3.779,41.844,3.779,41.844
				c2.824,2.67,13.685,3.03,17.309,0.721c0,0,5.213-55.223,5.974-64.337c1.001-11.988,2.854-98.001,2.854-98.001L140.185,192.62z"/>
			<path d="M169.765,244.679l4.202-19.37c0,0,9.392-2.143,16.1-7.524c0,0-2.46,6.181-12.746,10.91l-4.291,18.146l3.692,39.804
				L169.765,244.679z"/>
			<path style="fill:#263238;" d="M221.813,378.382c-7.116-2.661-14.035-5.77-18.417-8.852c-1.227-0.863-2.174-1.591-2.959-2.272
				c-1.811-1.818-2.915-5.777-3.699-6.229c-0.254-0.146-0.615,0.031-1.133,0.354c-0.297-0.315-0.563-0.493-0.832-0.501l-0.103,1.094
				c-1.094,0.676-2.647,1.494-4.869,1.777c-4.361,0.555-4.535-0.319-4.673,1.1c-0.034,0.346-0.029,0.913,0.024,1.584
				c-2.324-0.297-4.173-0.975-4.306-1.847l-0.384-2.79c-2.31-0.121-2.31,4.004-2.893,8.66c-0.472,3.768-1.269,6.515-0.136,9.231
				c3.597,2.911,9.709,1.944,13.23,2.391c4.98,0.632,7.431,4.208,14.401,6.332c11.235,3.423,18.074-1.265,20.081-3.273
				C226.428,382.632,225.69,379.832,221.813,378.382z"/>
		</g>
		<g>
			<path id="XMLID_329_" style="fill:#37474F;" d="M166.933,103.521c-8.798,1.336-15.787,1.689-21.934,2.687
				c-4.696,0.762-6.124,8.816-6.432,14.019c-1.002,16.934,2.874,49.388,2.874,49.388l-2.36,28.922
				c7.893,8.44,45.699,12.133,65.861-0.238c0,0,0.542-57.542,0-67.243c-0.954-17.072-10.821-27.988-17.117-28.47
				C187.825,102.586,182.059,101.224,166.933,103.521z"/>
			<path style="fill:#263238;" d="M182.674,205.485c0.883-0.118,1.762-0.252,2.637-0.398c0.273-11.4,0.559-33.811,0.255-44.617
				c-0.517-18.381-2.903-37.909-5.65-43.937c1.346,6.598,3.659,21.949,3.475,42.339
				C183.259,173.604,182.876,194.835,182.674,205.485z"/>
		</g>
		<g>
			<path style="fill:#FFA8A7;" d="M101.856,162.248c20.991-40.033,26.153-48.712,32.307-53.121
				c3.375-2.418,11.722-3.103,11.722-3.103c3.484,3.748,5.919,17.465-1.554,29.672c0,0-17.647,24.029-22.469,31.994
				c5.055,9.563,12.568,21.393,17.218,27.101c0.928,1.139,2.528,2.093,4.062,2.24c4.073,0.391,5.942,1.673,9.386,2.96
				c2.692,1.005,4.535,0.706,4.516,1.436c-0.024,0.939-0.919,2.861-3.569,3.295c-1.334,0.218-2.417,0.085-4.802-0.171
				c0,0,2.731,2.718,7.679,5.058c6.705,3.172,8.759,7.838-1.127,10.82c-3.958,1.194-11.183,0.962-20.96-8.496
				c-3.309-3.201-9.519-9.837-12.786-13.597c-8.56-9.852-15.641-18.588-20.191-24.533
				C98.461,170.111,99.939,165.906,101.856,162.248z"/>
			<path style="fill:#37474F;" d="M131.501,183.57l5.684,8.774c0,0-9.386,2.297-12.534,9.541l-8.188-8.723
				c0,0,0.515-3.51,5.806-7.037C127.561,182.598,131.501,183.57,131.501,183.57z"/>
			<path style="fill:#455A64;" d="M148.919,105.66c-6.935-0.06-12.168,0.139-16.273,3.232c-4.105,3.093-9.958,13.288-14.669,21.836
				c-4.712,8.548-16.558,29.579-18.263,34.449c-1.705,4.87-0.561,7.27,2.238,10.84c2.798,3.569,14.512,17.146,14.512,17.146
				c3.65-4.546,8.591-8.612,15.037-9.592l-8.669-15.939l20.31-27.522c0,0,5.647-7.035,6.885-18.761
				C151.266,109.621,148.919,105.66,148.919,105.66z"/>
		</g>
		<g id="XMLID_295_">
			<g id="XMLID_318_">
				<path style="fill:#263238;" d="M158.422,52.618c0,0-4.823,0.672-6.592,4.307c-1.538,3.162-0.981,10.795,1.069,19.114
					c2.05,8.319,3.982,13.331,5.187,15.632c1.205,2.302,3.682,2.949,3.682,2.949l-0.241-9.871l-0.357-6.878
					c0,0,4.416-6.029,4.9-10.97c0.624-6.359-0.715-8.962-0.715-8.962L158.422,52.618z"/>
				<path id="XMLID_529_" style="fill:#263238;" d="M157.29,53.827l-6.799-3.11c0.965-2.025,3.269-2.97,5.147-2.111
					C157.516,49.465,158.255,51.802,157.29,53.827z"/>
				<path id="XMLID_323_" style="fill:#263238;" d="M166.21,62.169c0.033,10.18,8.312,18.405,18.492,18.372
					c10.18-0.033,18.405-8.312,18.372-18.492c-0.033-10.18-8.312-18.405-18.492-18.372C174.403,43.71,166.178,51.989,166.21,62.169z
					"/>
				<path id="XMLID_322_" style="fill:#FFA8A7;" d="M161.43,76.773c-1.659,1.438-3.009-2.285-4.405-3.736
					c-1.396-1.451-5.944-3.425-8.194,1.356c-2.293,4.873,2.083,11.492,5.483,13.068c4.981,2.31,7.213-2.712,7.213-2.712l0.53,20.761
					c4.79,7.262,15.998,4.486,17.644,8.801c0.975-3.83,6.029-3.842,2.416-7.989l-0.04-6.765c0,0,5.586,0.829,8.308,0.399
					c4.53-0.715,6.897-4.132,8.256-9.042c2.183-7.886,3.059-21.139,0.027-36.45c-5.074-3.924-22.667-3.275-33.312,3.474
					C166.136,71.519,163.089,75.335,161.43,76.773z"/>
				<path style="fill:#263238;" d="M201.199,43.622c-0.138-0.262-0.368-0.502-0.66-0.508c-0.229-0.005-0.434,0.136-0.62,0.27
					c-0.669,0.484-2.15,1.728-4.035,2.717c0.376-1.808,0.395-3.688,0.07-5.506c-0.2-1.117-0.517-3.702-1.899-3.979
					c-0.823-0.165-1.54,0.523-2.153,1.097c-5.539,5.184-12.769,2.785-19.443,2.998c-5.58,0.178-12.314,2.449-14.834,7.875
					c-1.153,2.482-1.351,5.099,0.928,6.815c1.945,1.465,4.437,2.127,6.803,2.538c11.117,1.935,27.05,6.507,35.269-3.857
					c1.21-1.526,1.736-3.253,1.722-5.437c-0.013-2.01-0.432-3.491-1.116-4.958C201.221,43.666,201.21,43.644,201.199,43.622z"/>
				<path id="XMLID_321_" style="fill:#F28F8F;" d="M182.077,99.558c0,0-10.122-2.005-13.665-3.873
					c-2.371-1.251-4.328-3.425-4.905-4.821c0,0,0.673,2.999,2.796,5.696c2.597,3.298,15.782,5.69,15.782,5.69L182.077,99.558z"/>
			</g>
			<g id="XMLID_296_">
				<path id="XMLID_317_" style="fill:#263238;" d="M179.454,74.337c0.004,1.163-0.901,2.107-2.02,2.107
					c-1.12,0.001-2.03-0.942-2.034-2.105c-0.004-1.163,0.9-2.107,2.02-2.107C178.539,72.231,179.45,73.174,179.454,74.337z"/>
				<path id="XMLID_316_" style="fill:#263238;" d="M177.279,66.69l-4.329,2.408c-0.644-1.244-0.196-2.791,0.999-3.456
					C175.145,64.977,176.635,65.446,177.279,66.69z"/>
				<path id="XMLID_312_" style="fill:#F28F8F;" d="M180.447,87.229l6.472,2.405c-0.633,1.854-2.596,2.82-4.384,2.156
					C180.748,91.126,179.813,89.084,180.447,87.229z"/>
				<path id="XMLID_311_" style="fill:#263238;" d="M197.318,68.819l-3.964-3.033c0.803-1.135,2.341-1.376,3.436-0.538
					C197.885,66.085,198.121,67.684,197.318,68.819z"/>
				<path id="XMLID_303_" style="fill:#263238;" d="M196.118,73.705c0.004,1.163-0.901,2.106-2.021,2.107
					c-1.119,0-2.03-0.942-2.034-2.105c-0.004-1.163,0.901-2.106,2.02-2.107C195.204,71.599,196.114,72.541,196.118,73.705z"/>
				<polygon id="XMLID_299_" style="fill:#F28F8F;" points="185.977,71.816 186.682,84.005 193.04,81.814 				"/>
			</g>
		</g>
		<g>
			<path style="fill:#27DEBF;" d="M235.348,141.005c-7.221,0.694-20.907-1.676-28.821-6.743
				c-10.379-6.643-18.702-23.406-21.884-29.332c0,0-2.648-0.163-1.993,0.801c0.656,0.964,9.237,21.491,22.962,30.176
				c6.98,4.417,19.917,6.735,29.401,6.068L235.348,141.005z"/>
			<path style="opacity:0.4;" d="M235.348,141.005c-7.221,0.694-20.907-1.676-28.821-6.743
				c-10.379-6.643-18.702-23.406-21.884-29.332c0,0-2.648-0.163-1.993,0.801c0.656,0.964,9.237,21.491,22.962,30.176
				c6.98,4.417,19.917,6.735,29.401,6.068L235.348,141.005z"/>
			<path style="fill:#27DEBF;" d="M235.348,141.005c0,0-26.053,4.257-42.308-1.407c-15.397-5.364-27.428-19.949-30.983-34.088
				l-3.049,0.514c0,0,7.544,25.463,29.72,34.237c20.48,8.103,45.022,1.815,46.621,1.66L235.348,141.005z"/>
			<path style="opacity:0.3;" d="M235.348,141.005c0,0-26.053,4.257-42.308-1.407c-15.397-5.364-27.428-19.949-30.983-34.088
				l-3.049,0.514c0,0,7.544,25.463,29.72,34.237c20.48,8.103,45.022,1.815,46.621,1.66L235.348,141.005z"/>
			<g>
				<path style="fill:#27DEBF;" d="M238.036,140.287c0,0-1.919,0.293-2.688,0.485c-1.064,0.265-1.513,1.532-0.408,1.415
					c0.96-0.102,1.767-0.258,2.749-0.413C238.672,141.618,239.522,140.049,238.036,140.287z"/>
				<path style="fill:#27DEBF;" d="M237.574,141.117c0,0,2.307,0.273,2.314,0.255c0.006-0.019,0.62-0.781,0.62-0.781l-1.965-0.105
					L237.574,141.117z"/>
				<path style="opacity:0.4;" d="M237.574,141.117c0,0,2.307,0.273,2.314,0.255c0.006-0.019,0.62-0.781,0.62-0.781l-1.965-0.105
					L237.574,141.117z"/>
				<g>
					<path style="fill:#263238;" d="M238.976,141.305l5.39,1.338l1.324-0.764C245.691,141.879,242.514,140.962,238.976,141.305z"/>
					<polygon style="fill:#37474F;" points="238.976,141.305 238.976,141.623 243.995,142.857 244.366,142.643 					"/>
				</g>
				<g>
					<g>
						<path style="fill:#27DEBF;" d="M260.911,136.379c-0.01-0.05-0.03-0.1-0.04-0.14c-0.01-0.02-0.02-0.03-0.02-0.05
							c-0.03-0.05-0.06-0.09-0.1-0.13c-0.03-0.05-0.08-0.08-0.13-0.11c-0.02-0.01-0.03-0.02-0.05-0.03
							c-0.34-0.2-1.791-1.041-1.981-1.141c-0.19-0.11-0.46-0.1-0.76,0.08l-18.162,10.477c-0.6,0.35-1.081,1.191-1.081,1.881v39.736
							c0,0.35,0.12,0.59,0.32,0.701c0.19,0.11,1.831,1.061,2.021,1.171c0.02,0.01,0.03,0.02,0.05,0.02
							c0.03,0.02,0.07,0.03,0.11,0.04c0.08,0.02,0.15,0.02,0.24,0c0.12-0.01,0.24-0.06,0.37-0.13l18.162-10.487
							c0.6-0.34,1.081-1.181,1.081-1.871v-39.746C260.941,136.549,260.931,136.459,260.911,136.379z M251.415,143.654l-4.073,2.361
							c0.19-0.6,0.641-1.191,1.151-1.481l4.073-2.352C252.376,142.773,251.935,143.353,251.415,143.654z"/>
						<path style="opacity:0.15;" d="M260.911,136.379c-0.01-0.05-0.03-0.1-0.04-0.14c-0.01-0.02-0.02-0.03-0.02-0.05
							c-0.03-0.05-0.06-0.09-0.1-0.13c-0.03-0.05-0.08-0.08-0.13-0.11c-0.02-0.01-0.03-0.02-0.05-0.03
							c-0.34-0.2-1.791-1.041-1.981-1.141c-0.19-0.11-0.46-0.1-0.76,0.08l-18.162,10.477c-0.6,0.35-1.081,1.191-1.081,1.881v39.736
							c0,0.35,0.12,0.59,0.32,0.701c0.19,0.11,1.831,1.061,2.021,1.171c0.02,0.01,0.03,0.02,0.05,0.02
							c0.03,0.02,0.07,0.03,0.11,0.04c0.08,0.02,0.15,0.02,0.24,0c0.12-0.01,0.24-0.06,0.37-0.13l18.162-10.487
							c0.6-0.34,1.081-1.181,1.081-1.871v-39.746C260.941,136.549,260.931,136.459,260.911,136.379z M251.415,143.654l-4.073,2.361
							c0.19-0.6,0.641-1.191,1.151-1.481l4.073-2.352C252.376,142.773,251.935,143.353,251.415,143.654z"/>
						<path style="fill:#27DEBF;" d="M240.978,188.843c-0.02,0-0.03-0.01-0.05-0.02c-0.19-0.11-1.831-1.061-2.021-1.171
							c-0.2-0.11-0.32-0.35-0.32-0.701v-39.736c0-0.35,0.12-0.73,0.32-1.071l2.031,1.171c-0.2,0.34-0.32,0.721-0.32,1.071v39.736
							C240.618,188.493,240.758,188.743,240.978,188.843z"/>
						<path style="opacity:0.3;" d="M240.978,188.843c-0.02,0-0.03-0.01-0.05-0.02c-0.19-0.11-1.831-1.061-2.021-1.171
							c-0.2-0.11-0.32-0.35-0.32-0.701v-39.736c0-0.35,0.12-0.73,0.32-1.071l2.031,1.171c-0.2,0.34-0.32,0.721-0.32,1.071v39.736
							C240.618,188.493,240.758,188.743,240.978,188.843z"/>
						<path style="fill:#27DEBF;" d="M260.911,136.379c-0.01-0.05-0.03-0.1-0.04-0.14c-0.01-0.02-0.02-0.03-0.02-0.05
							c-0.03-0.05-0.06-0.09-0.1-0.13c-0.03-0.05-0.08-0.08-0.13-0.11c-0.02-0.01-0.03-0.02-0.05-0.03
							c-0.19-0.08-0.44-0.05-0.71,0.11l-8.445,4.873l-4.603,2.662l-5.113,2.942c-0.59,0.35-1.081,1.191-1.081,1.881v39.736
							c0,0.37,0.14,0.62,0.36,0.721c0.03,0.02,0.07,0.03,0.11,0.04c0.08,0.02,0.16,0.02,0.24,0c0.12-0.01,0.24-0.06,0.37-0.13
							l18.162-10.487c0.6-0.34,1.081-1.181,1.081-1.871v-39.746C260.941,136.549,260.931,136.459,260.911,136.379z M248.493,144.534
							l4.073-2.352c-0.19,0.59-0.63,1.171-1.151,1.471l-4.073,2.361C247.533,145.415,247.983,144.824,248.493,144.534z"/>
						<path style="opacity:0.2;" d="M254.377,142.513c0,0.76-0.57,1.701-1.271,2.111l-4.613,2.662
							c-0.701,0.4-1.271,0.12-1.271-0.641c0-0.2,0.04-0.42,0.12-0.63l4.073-2.361c0.52-0.3,0.961-0.881,1.151-1.471l0.54-0.31
							C253.807,141.462,254.377,141.752,254.377,142.513z"/>
					</g>
					<g id="XMLID_264_">
						<path id="XMLID_393_" style="fill:#FAFAFA;" d="M244.318,151.993l12.923-7.461c0.231-0.134,0.419-0.025,0.419,0.242v16.45
							c0,0.267-0.188,0.592-0.419,0.726l-12.923,7.448c-0.232,0.133-0.419,0.025-0.419-0.242v-16.436
							C243.899,152.452,244.087,152.126,244.318,151.993z"/>
						<g id="XMLID_280_">
							<path style="fill:#455A64;" d="M256.971,162.104l-2.031,1.171l-0.244,0.141c-0.809-1.124-1.522-2.163-1.522-2.163
								c-0.256-0.715-0.434-1.349-0.558-1.866c0-0.002,0-0.002,0-0.002c-0.219-0.912-0.268-1.463-0.268-1.463s0.003,0,0.007-0.002
								c0.078-0.024,0.875-0.261,1.585,0.002c0.434,0.163,0.89,0.607,1.207,1.144C255.473,159.622,256.337,161.053,256.971,162.104z
								"/>
							<g>
								<path style="fill:#37474F;" d="M254.939,163.275l-0.244,0.141l-2.348,1.353l-0.358,0.207l-4.699,2.709l-0.193,0.11
									l-0.022-0.81l0.237-3.75c0-0.724,0.375-3.604,0.375-3.604l1.066-0.424l0.644-0.256l0.21-0.083l0.085-0.034l1.78-0.712
									c0.117-0.041,0.229-0.076,0.339-0.105c0.002,0,0.002,0,0.005,0c0.037-0.012,0.076-0.02,0.11-0.027
									c0.149-0.037,0.288-0.059,0.422-0.068h0.01c1.322-0.102,2.026,0.89,2.353,2.478
									C254.803,160.855,254.878,161.948,254.939,163.275z"/>
								<path style="fill:#263238;" d="M252.347,164.769l-0.358,0.207c0.119-1.702,0.044-3.846-0.363-4.967
									C252.381,161.86,252.401,163.784,252.347,164.769z"/>
							</g>
							<path style="fill:#455A64;" d="M248.111,164.218c0,0-0.444,1.724-0.822,3.468l-0.193,0.11l-2.66,1.534
								c0.478-4.767,0.795-7.311,1.548-8.586c0.41-0.697,1.039-0.873,1.702-1.112C248.289,160.08,248.538,162.223,248.111,164.218z"
								/>
							<g id="XMLID_289_">
								<g id="XMLID_354_">
									<path style="fill:#263238;" d="M248.944,151.328c0,0-0.608,0.205-0.83,0.773c-0.194,0.494-0.124,1.592,0.135,2.757
										c0.258,1.165,0.502,1.851,0.654,2.159c0.152,0.308,0.464,0.347,0.464,0.347l-0.03-1.431l-0.045-0.993
										c0,0,0.556-0.975,0.617-1.705c0.079-0.939-0.09-1.288-0.09-1.288L248.944,151.328z"/>
									<path id="XMLID_388_" style="fill:#263238;" d="M248.801,151.529l-0.857-0.301c0.122-0.316,0.412-0.505,0.648-0.421
										C248.83,150.889,248.923,151.213,248.801,151.529z"/>
									<path id="XMLID_386_" style="fill:#263238;" d="M249.925,152.544c0.004,1.48,1.047,2.493,2.33,2.262
										c1.282-0.231,2.319-1.618,2.315-3.098c-0.004-1.48-1.047-2.493-2.33-2.262
										C250.957,149.677,249.921,151.064,249.925,152.544z"/>
									<path id="XMLID_381_" style="fill:#FFA8A7;" d="M249.323,154.775c-0.209,0.246-0.379-0.266-0.555-0.446
										c-0.176-0.18-0.749-0.366-1.032,0.379c-0.289,0.76,0.262,1.625,0.691,1.779c0.627,0.225,0.909-0.555,0.909-0.555
										l0.067,3.227c0.61,0.959,1.98,0.012,2.223,0.678c0.04-0.53,0.754-0.708,0.305-1.224l-0.005-0.983
										c0,0,0.704-0.003,1.047-0.126c0.571-0.205,0.869-0.754,1.04-1.499c0.275-1.196,0.385-3.143,0.003-5.303
										c-0.639-0.458-2.856,0.027-4.197,1.245C249.916,153.906,249.532,154.529,249.323,154.775z"/>
									<path style="fill:#263238;" d="M254.333,149.069c-0.017-0.035-0.046-0.065-0.083-0.059
										c-0.029,0.004-0.055,0.029-0.078,0.053c-0.084,0.085-0.271,0.299-0.508,0.485c0.047-0.271,0.05-0.545,0.009-0.802
										c-0.025-0.158-0.065-0.527-0.239-0.537c-0.104-0.006-0.194,0.11-0.271,0.207c-0.698,0.877-1.609,0.689-2.449,0.868
										c-0.703,0.15-1.551,0.63-1.869,1.475c-0.145,0.387-0.17,0.772,0.117,0.971c0.245,0.17,0.559,0.211,0.857,0.218
										c1.4,0.035,3.408,0.346,4.443-1.345c0.152-0.249,0.219-0.512,0.217-0.829c-0.002-0.292-0.055-0.498-0.141-0.696
										C254.336,149.075,254.335,149.072,254.333,149.069z"/>
									<path id="XMLID_375_" style="fill:#F28F8F;" d="M251.924,157.631c0,0-1.275-0.067-1.722-0.26
										c-0.299-0.129-0.545-0.402-0.618-0.592c0,0,0.085,0.421,0.352,0.767c0.327,0.422,1.988,0.477,1.988,0.477L251.924,157.631z
										"/>
								</g>
								<g id="XMLID_294_">
									<path id="XMLID_353_" style="fill:#263238;" d="M251.594,154.02c0,0.169-0.114,0.326-0.255,0.351
										c-0.141,0.025-0.256-0.092-0.256-0.261c0-0.169,0.113-0.326,0.255-0.351C251.478,153.734,251.593,153.851,251.594,154.02z"
										/>
									<path id="XMLID_352_" style="fill:#263238;" d="M251.32,152.956l-0.545,0.446c-0.081-0.167-0.025-0.402,0.126-0.525
										C251.051,152.754,251.238,152.789,251.32,152.956z"/>
									<path id="XMLID_343_" style="fill:#F28F8F;" d="M251.735,155.871l0.714,0.18c-0.07,0.249-0.286,0.41-0.484,0.36
										C251.768,156.361,251.665,156.119,251.735,155.871z"/>
									<path id="XMLID_342_" style="fill:#263238;" d="M253.763,152.761l-0.499-0.353c0.101-0.183,0.295-0.252,0.433-0.155
										C253.834,152.351,253.864,152.578,253.763,152.761z"/>
									<path id="XMLID_337_" style="fill:#263238;" d="M253.612,153.572c0.001,0.169-0.113,0.326-0.255,0.351
										c-0.141,0.025-0.256-0.092-0.256-0.261c0-0.169,0.113-0.326,0.255-0.351C253.497,153.286,253.611,153.403,253.612,153.572z
										"/>
									<polygon id="XMLID_331_" style="fill:#F28F8F;" points="252.415,153.508 252.504,155.266 253.305,154.806 									"/>
								</g>
							</g>
							<g>
								<path style="fill:#455A64;" d="M249.376,157.906c-0.168,0.012-0.226,0.085-0.358,0.416c-0.15,0.377-0.28,0.72-0.28,0.72
									s0,0.701,0.547,1.231c0.542,0.524,1.742,0.709,1.742,0.709s0.1-0.661,0.177-0.941c0.168-0.61,0.42-0.204,0.42-0.204
									s-0.03-0.225-0.137-0.313c-0.107-0.088-0.794-0.017-1.342-0.304c-0.548-0.286-0.761-0.941-0.761-0.941L249.376,157.906z"/>
								<path style="fill:#455A64;" d="M251.624,159.838c0-0.341,0.085-0.423,0.145-0.538c0.155-0.295,0.153-0.536,0.155-0.803
									c0.002-0.267-0.001-0.865-0.001-0.865c0.187-0.01,0.324-0.001,0.44,0.309c0.116,0.311,0.329,0.95,0.233,1.637
									c-0.096,0.687-0.345,0.959-0.345,0.959s-0.143-0.535-0.232-0.777C251.931,159.517,251.759,159.484,251.624,159.838z"/>
							</g>
						</g>
					</g>
					<g>
						<path style="fill:#455A64;" d="M246.522,170.169l8.516-4.917c0.309-0.179,0.56-0.034,0.56,0.324v0.223
							c0,0.357-0.251,0.792-0.56,0.971l-8.516,4.917c-0.31,0.179-0.56,0.034-0.56-0.323v-0.223
							C245.961,170.782,246.212,170.348,246.522,170.169z"/>
						<g>
							<path style="fill:#455A64;" d="M244.442,175.921l3.038-1.759c0.129-0.075,0.233-0.022,0.233,0.118
								c0,0.14-0.104,0.313-0.233,0.388l-3.037,1.759c-0.129,0.075-0.233,0.022-0.233-0.118
								C244.209,176.169,244.314,175.996,244.442,175.921z"/>
							<path style="fill:#455A64;" d="M249.699,172.887l7.418-4.282c0.129-0.074,0.234-0.022,0.234,0.118
								c0,0.14-0.104,0.313-0.233,0.388l-7.418,4.283c-0.129,0.074-0.234,0.021-0.234-0.118
								C249.465,173.135,249.57,172.961,249.699,172.887z"/>
							<path style="fill:#455A64;" d="M244.442,176.933l3.038-1.759c0.129-0.075,0.233-0.022,0.233,0.118
								c0,0.14-0.104,0.313-0.233,0.388l-3.037,1.759c-0.129,0.075-0.233,0.022-0.233-0.118
								C244.209,177.181,244.314,177.007,244.442,176.933z"/>
							<path style="fill:#455A64;" d="M249.699,173.898l7.418-4.282c0.129-0.074,0.234-0.021,0.234,0.118
								c0,0.14-0.104,0.313-0.233,0.388l-7.418,4.283c-0.129,0.074-0.234,0.021-0.234-0.118
								C249.465,174.146,249.57,173.973,249.699,173.898z"/>
							<path style="fill:#455A64;" d="M244.442,177.945l3.038-1.759c0.129-0.075,0.233-0.022,0.233,0.118
								c0,0.14-0.104,0.313-0.233,0.388l-3.037,1.759c-0.129,0.075-0.233,0.022-0.233-0.118
								C244.209,178.193,244.314,178.019,244.442,177.945z"/>
							<path style="fill:#455A64;" d="M249.699,174.91l7.418-4.282c0.129-0.074,0.234-0.022,0.234,0.118
								c0,0.14-0.104,0.313-0.233,0.388l-7.418,4.283c-0.129,0.074-0.234,0.021-0.234-0.118
								C249.465,175.158,249.57,174.984,249.699,174.91z"/>
							<path style="fill:#455A64;" d="M244.442,178.956l3.038-1.759c0.129-0.075,0.233-0.022,0.233,0.118
								c0,0.14-0.104,0.313-0.233,0.388l-3.037,1.759c-0.129,0.075-0.233,0.022-0.233-0.118
								C244.209,179.204,244.314,179.031,244.442,178.956z"/>
							<path style="fill:#455A64;" d="M249.699,175.922l7.418-4.282c0.129-0.074,0.234-0.022,0.234,0.118
								c0,0.14-0.104,0.313-0.233,0.388l-7.418,4.283c-0.129,0.074-0.234,0.022-0.234-0.118
								C249.465,176.17,249.57,175.996,249.699,175.922z"/>
						</g>
						<g>
							<polygon style="fill:#455A64;" points="245.523,180.757 245.523,183.924 246.437,183.396 246.437,180.229 							"/>
							<polygon style="fill:#455A64;" points="248.266,179.173 248.266,182.34 249.18,181.813 249.18,178.646 							"/>
							<polygon style="fill:#455A64;" points="251.924,177.061 251.924,180.229 252.838,179.701 252.838,176.534 							"/>
							<polygon style="fill:#455A64;" points="255.122,175.215 255.122,178.382 256.036,177.854 256.036,174.687 							"/>
							<polygon style="fill:#455A64;" points="246.894,179.965 246.894,183.132 247.351,182.868 247.351,179.701 							"/>
							<polygon style="fill:#455A64;" points="253.294,176.27 253.294,179.437 253.751,179.173 253.751,176.006 							"/>
							<polygon style="fill:#455A64;" points="250.551,177.854 250.551,181.021 251.008,180.757 251.008,177.59 							"/>
							<polygon style="fill:#455A64;" points="247.808,179.438 247.808,182.604 248.037,182.473 248.037,179.305 							"/>
							<polygon style="fill:#455A64;" points="251.32,177.41 251.32,180.577 251.548,180.445 251.548,177.278 							"/>
							<polygon style="fill:#455A64;" points="249.866,178.25 249.866,181.417 250.094,181.285 250.094,178.118 							"/>
							<polygon style="fill:#455A64;" points="254.437,175.611 254.437,178.777 254.665,178.646 254.665,175.479 							"/>
							<polygon style="fill:#455A64;" points="249.408,178.511 249.409,181.678 249.637,181.546 249.637,178.379 							"/>
							<polygon style="fill:#455A64;" points="253.98,175.876 253.98,179.043 254.208,178.911 254.208,175.744 							"/>
						</g>
						<path style="opacity:0.3;" d="M247.071,172.262l7.418-4.282c0.129-0.074,0.233-0.022,0.233,0.118
							c0,0.14-0.104,0.313-0.233,0.388l-7.418,4.283c-0.129,0.074-0.234,0.022-0.234-0.118
							C246.837,172.511,246.942,172.337,247.071,172.262z"/>
					</g>
				</g>
				<path style="fill:#FFA8A7;" d="M267.576,174.158l0.003,0.003c-0.033-1.484,0.714-2.505,0-4.32
					c-0.714-1.815-3.752-4.991-5.195-7.714c-1.443-2.723-2.496-3.403-3.517-2.155c-0.873,1.067,1.256,6.346,1.895,7.861
					c-1.136-0.606-2.236-0.851-3.134-0.285c-2.033,1.281,1.103,4.214,1.103,4.214s-2.395,0.511-2.534,2.166
					c-0.139,1.655,2.979,4.724,2.979,4.724l-12.254,7.075c0,0,3.346,0.955,6.401,1.197c1.018,0.081,2.458,0.118,3.285,0.038
					c3.892-0.373,5.418-1.088,7.641-3.265c2.223-2.177,3.67-5.77,3.67-5.77C268.473,176.742,268.234,175.416,267.576,174.158z"/>
				<path style="fill:#F28F8F;" d="M260.536,179.978l-1.359-1.326l-12.254,7.075c0,0,3.352,0.957,6.409,1.197L260.536,179.978z"/>
				<g>
					<path style="fill:#455A64;" d="M249.17,144.468c0.416-0.236,0.288-1.609-0.404-2.008c-1.534-0.886-6.488-1.461-9.793-1.453
						l2.823-1.631c3.305-0.008,8.259,0.567,9.793,1.453c0.692,0.399,0.821,1.772,0.405,2.008L249.17,144.468z"/>
					<path style="fill:#37474F;" d="M249.171,144.465c-0.11,0.06-0.235,0.053-0.415-0.067l0.26-0.149c0,0,0.014-0.015,0.025-0.044
						c0.012-0.029,0.06-0.14,0.06-0.37v-0.11c-0.02-0.36-0.18-0.83-0.49-1.01c-1.5-0.86-6.415-1.41-9.485-1.41h-0.15v-0.3
						c3.3-0.01,8.256,0.57,9.786,1.45C249.461,142.855,249.591,144.235,249.171,144.465z"/>
					<path style="opacity:0.35;" d="M243.371,139.895l-0.2,0.11l-1.08,0.58c-0.14,0.08-0.39,0.13-0.56,0.12l-0.43-0.02h-0.11
						c-0.17-0.01-0.18-0.09-0.04-0.17l1.12-0.65c0.14-0.08,0.39-0.14,0.55-0.14l0.71,0.02
						C243.501,139.755,243.511,139.825,243.371,139.895z"/>
					<path style="opacity:0.35;" d="M243.171,140.005l-1.08,0.58c-0.14,0.08-0.39,0.13-0.56,0.12l-0.43-0.02l0.97-0.56
						c0.14-0.08,0.39-0.15,0.55-0.14L243.171,140.005z"/>
				</g>
				<path style="fill:#27DEBF;" d="M241.215,140.62l0.123-0.071c-0.036-0.165-0.537-0.277-1.532-0.14
					c-1.401,0.194-2.232,0.708-2.232,0.708s0.309-0.57,1.216-1.068c0.908-0.499,3.28-0.431,3.431,0.009
					c0.017,0.05,0.057,0.145-0.041,0.204c-0.135,0.081-0.344,0.231-0.526,0.325C241.553,140.639,241.319,140.627,241.215,140.62z"/>
				<path style="opacity:0.3;" d="M241.215,140.62l0.123-0.071c-0.036-0.165-0.537-0.277-1.532-0.14
					c-1.401,0.194-2.232,0.708-2.232,0.708s0.309-0.57,1.216-1.068c0.908-0.499,3.28-0.431,3.431,0.009
					c0.017,0.05,0.057,0.145-0.041,0.204c-0.135,0.081-0.344,0.231-0.526,0.325C241.553,140.639,241.319,140.627,241.215,140.62z"/>
			</g>
		</g>
		<g>
			<path style="fill:#455A64;" d="M161.863,97.895c-1.281,0.097-1.81,0.256-2.855,2.345c-1.192,2.382-2.22,4.558-2.22,4.558
				s0,4.823,4.344,9.232c4.3,4.364,13.835,7.317,13.835,7.317s0.794-4.406,1.403-6.22c1.331-3.962,3.331-0.815,3.331-0.815
				s-0.239-1.588-1.088-2.345c-0.85-0.758-6.306-1.23-10.658-3.967c-4.352-2.738-6.026-7.544-6.026-7.544L161.863,97.895z"/>
			<path style="fill:#455A64;" d="M179.701,114.311c0-2.345,0.674-2.791,1.154-3.496c1.231-1.811,1.216-3.468,1.231-5.305
				c0.015-1.837-0.009-5.953-0.009-5.953c1.482,0.191,2.571,0.443,3.495,2.744c0.924,2.301,2.616,6.996,1.852,11.583
				c-0.764,4.586-2.737,6.11-2.737,6.11s-1.135-3.877-1.844-5.668C182.132,112.535,180.768,112.063,179.701,114.311z"/>
		</g>
	</g>
</g>
<g id="ID_Card">
	<g id="ID">
		<g>
			<path style="fill:#27DEBF;" d="M391.713,51.977c-0.044-0.222-0.134-0.444-0.178-0.623c-0.044-0.089-0.089-0.133-0.089-0.222
				c-0.134-0.222-0.266-0.4-0.444-0.578c-0.134-0.222-0.356-0.355-0.578-0.489c-0.089-0.045-0.134-0.089-0.223-0.134
				c-1.511-0.889-7.959-4.624-8.803-5.068c-0.844-0.489-2.045-0.445-3.379,0.355L297.323,91.77
				c-2.668,1.556-4.802,5.291-4.802,8.359v176.554c0,1.556,0.534,2.623,1.423,3.112c0.845,0.489,8.137,4.713,8.981,5.202
				c0.089,0.044,0.134,0.089,0.223,0.089c0.134,0.089,0.311,0.134,0.488,0.178c0.356,0.089,0.668,0.089,1.067,0
				c0.534-0.044,1.067-0.267,1.646-0.578l80.696-46.595c2.668-1.512,4.802-5.246,4.802-8.314V53.178
				C391.847,52.733,391.802,52.333,391.713,51.977z"/>
			<path style="opacity:0.15;" d="M391.713,51.977c-0.044-0.222-0.134-0.444-0.178-0.623c-0.044-0.089-0.089-0.133-0.089-0.222
				c-0.134-0.222-0.266-0.4-0.444-0.578c-0.134-0.222-0.356-0.355-0.578-0.489c-0.089-0.045-0.134-0.089-0.223-0.134
				c-1.511-0.889-7.959-4.624-8.803-5.068c-0.844-0.489-2.045-0.445-3.379,0.355L297.323,91.77
				c-2.668,1.556-4.802,5.291-4.802,8.359v176.554c0,1.556,0.534,2.623,1.423,3.112c0.845,0.489,8.137,4.713,8.981,5.202
				c0.089,0.044,0.134,0.089,0.223,0.089c0.134,0.089,0.311,0.134,0.488,0.178c0.356,0.089,0.668,0.089,1.067,0
				c0.534-0.044,1.067-0.267,1.646-0.578l80.696-46.595c2.668-1.512,4.802-5.246,4.802-8.314V53.178
				C391.847,52.733,391.802,52.333,391.713,51.977z"/>
			<path style="fill:#27DEBF;" d="M303.147,285.086c-0.089,0-0.134-0.044-0.223-0.089c-0.845-0.489-8.137-4.713-8.981-5.202
				c-0.889-0.489-1.423-1.556-1.423-3.112V100.129c0-1.556,0.534-3.246,1.423-4.757l9.026,5.202
				c-0.889,1.512-1.423,3.201-1.423,4.757v176.554C301.546,283.53,302.169,284.641,303.147,285.086z"/>
			<path style="opacity:0.3;" d="M303.147,285.086c-0.089,0-0.134-0.044-0.223-0.089c-0.845-0.489-8.137-4.713-8.981-5.202
				c-0.889-0.489-1.423-1.556-1.423-3.112V100.129c0-1.556,0.534-3.246,1.423-4.757l9.026,5.202
				c-0.889,1.512-1.423,3.201-1.423,4.757v176.554C301.546,283.53,302.169,284.641,303.147,285.086z"/>
			<path style="fill:#27DEBF;" d="M391.713,51.977c-0.044-0.222-0.134-0.444-0.178-0.623c-0.044-0.089-0.089-0.133-0.089-0.222
				c-0.134-0.222-0.266-0.4-0.444-0.578c-0.134-0.222-0.356-0.355-0.578-0.489c-0.089-0.045-0.134-0.089-0.223-0.134
				c-0.845-0.355-1.956-0.222-3.157,0.489L349.52,72.074L329.067,83.9l-22.719,13.072c-2.624,1.556-4.802,5.291-4.802,8.359v176.554
				c0,1.645,0.623,2.757,1.601,3.201c0.134,0.089,0.311,0.134,0.488,0.178c0.356,0.089,0.712,0.089,1.067,0
				c0.534-0.044,1.067-0.267,1.646-0.578l80.696-46.595c2.668-1.512,4.802-5.246,4.802-8.314V53.178
				C391.847,52.733,391.802,52.333,391.713,51.977z"/>
		</g>
		<g id="XMLID_263_">
			<path id="XMLID_390_" style="fill:#FAFAFA;" d="M316.07,107.715l61.252-35.363c1.097-0.633,1.987-0.12,1.987,1.147v77.968
				c0,1.267-0.89,2.807-1.987,3.439l-61.25,35.3c-1.098,0.633-1.987,0.118-1.987-1.148l0-77.901
				C314.084,109.889,314.973,108.348,316.07,107.715z"/>
			<g id="XMLID_288_">
				<path style="fill:#455A64;" d="M376.041,155.639l-9.628,5.548l-1.156,0.67c-3.837-5.328-7.212-10.252-7.212-10.252
					c-1.214-3.387-2.058-6.392-2.647-8.842c0-0.011,0-0.011,0-0.011c-1.04-4.323-1.272-6.935-1.272-6.935s0.012,0,0.035-0.012
					c0.37-0.116,4.15-1.237,7.513,0.012c2.057,0.774,4.219,2.878,5.721,5.421C368.944,143.873,373.035,150.658,376.041,155.639z"/>
				<g>
					<path style="fill:#37474F;" d="M366.413,161.187l-1.156,0.67l-11.13,6.415l-1.699,0.982l-22.273,12.841l-0.913,0.52
						l-0.104-3.837l1.121-17.777c0-3.433,1.78-17.083,1.78-17.083l5.051-2.011l3.051-1.214l0.994-0.393l0.404-0.162l8.438-3.375
						c0.555-0.196,1.087-0.358,1.607-0.497c0.012,0,0.012,0,0.023,0c0.173-0.058,0.358-0.092,0.52-0.127
						c0.705-0.173,1.364-0.277,2-0.324h0.046c6.264-0.486,9.605,4.219,11.154,11.743C365.766,149.722,366.124,154.9,366.413,161.187
						z"/>
					<path style="fill:#263238;" d="M354.126,168.273l-1.699,0.982c0.566-8.068,0.208-18.227-1.722-23.544
						C354.289,154.484,354.381,163.603,354.126,168.273z"/>
				</g>
				<path style="fill:#455A64;" d="M334.05,165.66c0,0-2.103,8.172-3.895,16.436l-0.913,0.52l-12.61,7.27
					c2.265-22.596,3.768-34.651,7.339-40.696c1.942-3.306,4.924-4.138,8.068-5.271C334.893,146.046,336.073,156.206,334.05,165.66z"
					/>
				<g id="XMLID_530_">
					<g id="XMLID_540_">
						<path style="fill:#263238;" d="M337.995,104.562c0,0-2.88,0.971-3.936,3.664c-0.919,2.342-0.586,7.547,0.638,13.067
							c1.224,5.52,2.378,8.772,3.098,10.233c0.72,1.46,2.199,1.646,2.199,1.646l-0.144-6.781l-0.213-4.705
							c0,0,2.637-4.622,2.926-8.08c0.373-4.451-0.427-6.104-0.427-6.104L337.995,104.562z"/>
						<path id="XMLID_544_" style="fill:#263238;" d="M337.32,105.514l-4.06-1.429c0.576-1.498,1.952-2.392,3.073-1.997
							C337.454,102.483,337.896,104.017,337.32,105.514z"/>
						<path id="XMLID_543_" style="fill:#263238;" d="M342.646,110.327c0.02,7.016,4.964,11.815,11.042,10.721
							c6.079-1.095,10.99-7.669,10.971-14.685c-0.02-7.016-4.963-11.815-11.042-10.721
							C347.538,96.737,342.627,103.312,342.646,110.327z"/>
						<path id="XMLID_542_" style="fill:#FFA8A7;" d="M339.792,120.901c-0.991,1.166-1.797-1.259-2.63-2.112
							c-0.834-0.854-3.549-1.736-4.893,1.798c-1.369,3.601,1.244,7.704,3.274,8.433c2.974,1.068,4.307-2.629,4.307-2.629
							l0.316,15.295c2.889,4.547,9.385,0.058,10.534,3.213c0.19-2.512,3.574-3.353,1.444-5.801l-0.024-4.66
							c0,0,3.336-0.016,4.961-0.599c2.705-0.97,4.118-3.575,4.93-7.104c1.303-5.667,1.827-14.898,0.016-25.136
							c-3.03-2.171-13.535,0.128-19.892,5.903C342.602,116.782,340.782,119.734,339.792,120.901z"/>
						<path style="fill:#263238;" d="M363.539,93.855c-0.083-0.166-0.219-0.308-0.394-0.281c-0.137,0.021-0.259,0.139-0.37,0.252
							c-0.399,0.404-1.284,1.418-2.409,2.298c0.225-1.286,0.236-2.585,0.042-3.804c-0.119-0.749-0.309-2.498-1.134-2.544
							c-0.491-0.027-0.92,0.523-1.286,0.983c-3.307,4.157-7.625,3.265-11.61,4.114c-3.332,0.71-7.353,2.985-8.858,6.992
							c-0.688,1.833-0.807,3.658,0.554,4.601c1.161,0.805,2.649,0.999,4.062,1.034c6.638,0.163,16.153,1.639,21.06-6.373
							c0.722-1.179,1.037-2.426,1.028-3.93c-0.008-1.385-0.258-2.362-0.666-3.301C363.552,93.883,363.546,93.869,363.539,93.855z"/>
						<path id="XMLID_541_" style="fill:#F28F8F;" d="M352.121,134.437c0,0-6.044-0.317-8.16-1.232
							c-1.416-0.613-2.584-1.906-2.929-2.808c0,0,0.402,1.997,1.67,3.633c1.551,2.001,9.424,2.262,9.424,2.262L352.121,134.437z"/>
					</g>
					<g id="XMLID_531_">
						<path id="XMLID_539_" style="fill:#263238;" d="M350.554,117.323c0.002,0.802-0.538,1.547-1.206,1.666
							c-0.669,0.118-1.212-0.436-1.215-1.237c-0.002-0.802,0.538-1.547,1.206-1.666
							C350.008,115.967,350.552,116.521,350.554,117.323z"/>
						<path id="XMLID_538_" style="fill:#263238;" d="M349.255,112.279l-2.585,2.116c-0.384-0.79-0.117-1.904,0.597-2.488
							C347.981,111.323,348.871,111.489,349.255,112.279z"/>
						<path id="XMLID_535_" style="fill:#F28F8F;" d="M351.225,126.094l3.383,0.855c-0.331,1.178-1.357,1.942-2.292,1.706
							C351.382,128.419,350.893,127.273,351.225,126.094z"/>
						<path id="XMLID_534_" style="fill:#263238;" d="M360.836,111.356l-2.367-1.674c0.479-0.867,1.398-1.195,2.052-0.733
							C361.175,109.411,361.316,110.488,360.836,111.356z"/>
						<path id="XMLID_533_" style="fill:#263238;" d="M360.12,115.2c0.002,0.802-0.538,1.547-1.207,1.665
							c-0.668,0.118-1.212-0.436-1.214-1.237c-0.002-0.801,0.538-1.547,1.206-1.666C359.574,113.844,360.118,114.399,360.12,115.2z"
							/>
						<polygon id="XMLID_532_" style="fill:#F28F8F;" points="354.45,114.898 354.871,123.228 358.667,121.048 						"/>
					</g>
				</g>
				<g>
					<path style="fill:#455A64;" d="M340.043,135.744c-0.797,0.055-1.072,0.403-1.695,1.97c-0.712,1.787-1.325,3.411-1.325,3.411
						s0,3.324,2.593,5.835c2.567,2.486,8.259,3.362,8.259,3.362s0.474-3.134,0.837-4.458c0.794-2.893,1.988-0.967,1.988-0.967
						s-0.142-1.065-0.65-1.484c-0.507-0.419-3.764-0.081-6.362-1.439c-2.598-1.358-3.609-4.46-3.609-4.46L340.043,135.744z"/>
					<path style="fill:#455A64;" d="M350.7,144.898c0-1.617,0.403-2.005,0.689-2.55c0.735-1.398,0.726-2.538,0.735-3.806
						c0.009-1.268-0.005-4.102-0.005-4.102c0.885-0.048,1.535-0.007,2.086,1.467c0.551,1.474,1.562,4.505,1.105,7.759
						c-0.456,3.254-1.634,4.544-1.634,4.544s-0.677-2.534-1.101-3.683C352.152,143.378,351.337,143.218,350.7,144.898z"/>
				</g>
			</g>
		</g>
		<path style="fill:#27DEBF;" d="M301.546,130.726l-9.025-5.212l-21.622,22.91c-0.708,0.751-0.438,1.858,0.317,2.315
			c0.255,0.154,8.272,4.763,9.033,5.217c0.254,0.151,0.562,0.229,0.906,0.196l20.408-1.964L301.546,130.726z"/>
		<path style="opacity:0.15;" d="M301.546,130.726l-9.025-5.212l-21.622,22.91c-0.708,0.751-0.438,1.858,0.317,2.315
			c0.255,0.154,8.272,4.763,9.033,5.217c0.254,0.151,0.562,0.229,0.906,0.196l20.408-1.964L301.546,130.726z"/>
		<path style="fill:#27DEBF;" d="M301.546,130.726l-21.622,22.91c-0.711,0.753-0.437,1.866,0.325,2.319
			c0.254,0.151,0.562,0.229,0.906,0.196l20.408-1.964L301.546,130.726z"/>
		<g>
			<path style="fill:#455A64;" d="M326.514,192.866l40.365-23.304c1.467-0.847,2.656-0.16,2.655,1.533l0,1.059
				c0,1.694-1.189,3.753-2.656,4.6l-40.364,23.304c-1.467,0.847-2.656,0.16-2.656-1.533v-1.059
				C323.858,195.773,325.047,193.713,326.514,192.866z"/>
			<g>
				<path style="fill:#455A64;" d="M316.659,221.13l14.397-8.336c0.611-0.354,1.106-0.104,1.106,0.558
					c0,0.662-0.495,1.485-1.106,1.839l-14.396,8.337c-0.611,0.354-1.106,0.104-1.106-0.559
					C315.554,222.307,316.049,221.483,316.659,221.13z"/>
				<path style="fill:#455A64;" d="M341.573,206.747l35.159-20.298c0.611-0.353,1.107-0.102,1.107,0.56
					c0,0.662-0.495,1.485-1.107,1.837l-35.157,20.298c-0.611,0.353-1.107,0.102-1.107-0.56
					C340.467,207.922,340.962,207.1,341.573,206.747z"/>
				<path style="fill:#455A64;" d="M316.659,225.925l14.397-8.336c0.611-0.354,1.106-0.104,1.106,0.558
					c0,0.662-0.495,1.485-1.106,1.839l-14.396,8.337c-0.611,0.354-1.106,0.104-1.106-0.559
					C315.554,227.102,316.049,226.278,316.659,225.925z"/>
				<path style="fill:#455A64;" d="M341.573,211.542l35.159-20.298c0.611-0.353,1.107-0.102,1.107,0.56
					c0,0.662-0.495,1.485-1.107,1.837l-35.157,20.298c-0.611,0.353-1.107,0.102-1.107-0.56S340.962,211.895,341.573,211.542z"/>
				<path style="fill:#455A64;" d="M316.659,230.72l14.397-8.336c0.611-0.354,1.106-0.104,1.106,0.558
					c0,0.662-0.495,1.485-1.106,1.839l-14.396,8.337c-0.611,0.354-1.106,0.104-1.106-0.558
					C315.554,231.897,316.049,231.073,316.659,230.72z"/>
				<path style="fill:#455A64;" d="M341.573,216.337l35.159-20.298c0.611-0.353,1.107-0.102,1.107,0.56
					c0,0.662-0.495,1.485-1.107,1.837l-35.157,20.298c-0.611,0.353-1.107,0.102-1.107-0.56
					C340.467,217.512,340.962,216.69,341.573,216.337z"/>
				<path style="fill:#455A64;" d="M316.659,235.515l14.397-8.336c0.611-0.354,1.106-0.104,1.106,0.558
					c0,0.662-0.495,1.485-1.106,1.839l-14.396,8.337c-0.611,0.354-1.106,0.104-1.106-0.559
					C315.554,236.692,316.049,235.869,316.659,235.515z"/>
				<path style="fill:#455A64;" d="M341.573,221.132l35.159-20.298c0.611-0.353,1.107-0.102,1.107,0.56
					c0,0.662-0.495,1.484-1.107,1.837l-35.157,20.298c-0.611,0.353-1.107,0.102-1.107-0.56
					C340.467,222.308,340.962,221.485,341.573,221.132z"/>
			</g>
			<g>
				<polygon style="fill:#455A64;" points="321.781,244.05 321.781,259.061 326.114,256.559 326.114,241.548 				"/>
				<polygon style="fill:#455A64;" points="334.78,236.545 334.78,251.556 339.113,249.054 339.113,234.043 				"/>
				<polygon style="fill:#455A64;" points="352.119,226.534 352.119,241.546 356.452,239.043 356.452,224.033 				"/>
				<polygon style="fill:#455A64;" points="367.279,217.781 367.279,232.792 371.612,230.29 371.612,215.279 				"/>
				<polygon style="fill:#455A64;" points="328.279,240.298 328.28,255.308 330.446,254.057 330.447,239.047 				"/>
				<polygon style="fill:#455A64;" points="358.612,222.784 358.613,237.794 360.78,236.543 360.78,221.532 				"/>
				<polygon style="fill:#455A64;" points="345.612,230.291 345.613,245.301 347.779,244.05 347.779,229.04 				"/>
				<polygon style="fill:#455A64;" points="332.613,237.796 332.613,252.807 333.695,252.182 333.695,237.171 				"/>
				<polygon style="fill:#455A64;" points="349.257,228.186 349.258,243.197 350.339,242.572 350.34,227.561 				"/>
				<polygon style="fill:#455A64;" points="342.364,232.167 342.365,247.178 343.446,246.553 343.447,231.542 				"/>
				<polygon style="fill:#455A64;" points="364.03,219.657 364.03,234.668 365.112,234.043 365.112,219.032 				"/>
				<polygon style="fill:#455A64;" points="340.197,233.405 340.198,248.415 341.28,247.79 341.28,232.779 				"/>
				<polygon style="fill:#455A64;" points="361.863,220.915 361.864,235.926 362.946,235.301 362.946,220.29 				"/>
			</g>
			<path style="opacity:0.3;" d="M329.117,202.789l35.159-20.298c0.611-0.353,1.107-0.102,1.107,0.56
				c0,0.662-0.496,1.484-1.107,1.837l-35.158,20.298c-0.611,0.353-1.107,0.102-1.107-0.56
				C328.01,203.964,328.506,203.141,329.117,202.789z"/>
		</g>
	</g>
</g>
</svg>
